<svg id="Capa_1" data-name="Capa 1" xmlns="http://www.w3.org/2000/svg" viewBox="0 0 253.38 486.31"><defs><style>.cls-1{fill:#1d1d1b;}</style></defs><path id="Paper" class="cls-1" d="M366.61,128.57a12.52,12.52,0,0,0-10.28-2.76,53.62,53.62,0,0,0-33.75,20.71v-81c0-16.33-12.43-29.69-28.3-30.39a29.47,29.47,0,0,0-20.22,6.76V34.1c0-16.33-12.43-29.68-28.3-30.38a29.67,29.67,0,0,0-31,29.63v1.51A28.86,28.86,0,0,0,197.24,28a29.67,29.67,0,0,0-31,29.63V83.23A29.4,29.4,0,0,0,146,76.49c-15.88.71-28.32,14.06-28.32,30.39V257.1A126.72,126.72,0,0,0,241.84,383.77c.85,0,1.71,0,2.55,0a124.78,124.78,0,0,0,87.84-36.12A128.68,128.68,0,0,0,371.1,255.1V138.2A12.52,12.52,0,0,0,366.61,128.57ZM360.32,255.1A117.88,117.88,0,0,1,324.68,340a114.34,114.34,0,0,1-82.62,33C179.45,371.73,128.5,319.76,128.5,257.1V106.88c0-10.37,8.09-19.17,18-19.6a18.85,18.85,0,0,1,19.73,18.85v78.38a37.68,37.68,0,0,0-8.8,1.64,5.39,5.39,0,1,0,3.5,10.19,36.75,36.75,0,0,1,10.69-1.26,36.59,36.59,0,0,1,10.69,1.26,5.43,5.43,0,0,0,6.87-3.34,5.4,5.4,0,0,0-3.36-6.85,37.77,37.77,0,0,0-8.81-1.64V57.61a18.87,18.87,0,0,1,19.73-18.85c9.94.43,18,9.23,18,19.6V173.73a37.87,37.87,0,0,0-8.81,1.64,5.39,5.39,0,0,0,3.51,10.19,46,46,0,0,1,21.38,0,5.72,5.72,0,0,0,1.76.28,5.38,5.38,0,0,0,1.75-10.47,37.77,37.77,0,0,0-8.81-1.64V33.35A18.85,18.85,0,0,1,245.27,14.5c9.94.43,18,9.23,18,19.6v145a37.87,37.87,0,0,0-8.81,1.64A5.39,5.39,0,0,0,258,191a46,46,0,0,1,21.38,0,5.72,5.72,0,0,0,1.76.28,5.38,5.38,0,0,0,1.75-10.47,37.77,37.77,0,0,0-8.81-1.64V64.8A18.88,18.88,0,0,1,293.79,46c9.94.43,18,9.23,18,19.6V222.88a1.74,1.74,0,0,1-1.55,1.76,77.42,77.42,0,0,0-70.92,77.58,5.39,5.39,0,1,0,10.78,0c0-34.45,26.83-63.8,61.1-66.83a12.6,12.6,0,0,0,11.37-12.51v-44a43.05,43.05,0,0,1,35.62-42.48,1.76,1.76,0,0,1,1.47.39,1.78,1.78,0,0,1,.65,1.38Z" transform="translate(-117.72 -3.69)"/><path class="cls-1" d="M184,437.23v9.11c0,11.21-5.4,17.32-16.42,17.32h-5.2V490h-11V419.91h16.22C178.64,419.91,184,426,184,437.23Zm-21.62-7.31v23.73h5.2c3.51,0,5.41-1.6,5.41-6.61V436.53c0-5-1.9-6.61-5.41-6.61Z" transform="translate(-117.72 -3.69)"/><path class="cls-1" d="M223.49,490H212.38l-1.91-12.71H197L195.06,490H184.94l11.22-70.08h16.12Zm-25.13-22.22H209l-5.2-35.45h-.2Z" transform="translate(-117.72 -3.69)"/><path class="cls-1" d="M261.23,437.23v9.11c0,11.21-5.41,17.32-16.42,17.32h-5.2V490h-11V419.91h16.22C255.82,419.91,261.23,426,261.23,437.23Zm-21.62-7.31v23.73h5.2c3.51,0,5.41-1.6,5.41-6.61V436.53c0-5-1.9-6.61-5.41-6.61Z" transform="translate(-117.72 -3.69)"/><path class="cls-1" d="M277.35,449.44h15.12v10H277.35V480h19v10h-30V419.91h30v10h-19Z" transform="translate(-117.72 -3.69)"/><path class="cls-1" d="M326.2,490c-.6-1.8-1-2.9-1-8.61v-11c0-6.51-2.2-8.91-7.21-8.91h-3.8V490h-11V419.91H319.8c11.41,0,16.32,5.31,16.32,16.12v5.51c0,7.2-2.31,11.81-7.21,14.11v.2c5.5,2.3,7.31,7.51,7.31,14.82v10.81c0,3.41.1,5.91,1.2,8.51Zm-12-60.07v21.53h4.3c4.11,0,6.61-1.8,6.61-7.41v-6.91c0-5-1.7-7.21-5.6-7.21Z" transform="translate(-117.72 -3.69)"/></svg>