<svg id="Capa_1" data-name="Capa 1" xmlns="http://www.w3.org/2000/svg" viewBox="0 0 276.29 476.04"><defs><style>.cls-1{fill:#1d1d1b;}</style></defs><path id="Scissors" class="cls-1" d="M365,133.73A12.25,12.25,0,0,0,355,131a52.21,52.21,0,0,0-22.12,9.47l17.58-65.61a29,29,0,0,0-56-15L274.56,134V40.67a29,29,0,1,0-58,0V146.53a29,29,0,0,0-46.45,14.89,29,29,0,0,0-48.38,21.5v76.42a123.81,123.81,0,0,0,121.3,123.78c.83,0,1.65,0,2.48,0a121.89,121.89,0,0,0,85.85-35.31,125.72,125.72,0,0,0,38-90.46V143.14A12.27,12.27,0,0,0,365,133.73ZM179.73,168.87a18.44,18.44,0,1,1,36.87,0v54.44a18.44,18.44,0,1,1-36.87,0Zm-47.42,14a18.44,18.44,0,1,1,36.88,0v40.39a18.44,18.44,0,0,1-36.88,0Zm226.54,74.46A115.18,115.18,0,0,1,324,340.3a111.48,111.48,0,0,1-80.75,32.28c-61.18-1.21-111-52-111-113.24V245.65a29,29,0,0,0,42.15-5.71,29,29,0,0,0,52.68-16.63V40.67a18.44,18.44,0,1,1,36.88,0V183.13a36.28,36.28,0,0,0-8.6,1.6,5.26,5.26,0,1,0,3.42,10,45,45,0,0,1,20.9,0,5.19,5.19,0,0,0,1.72.3,5.27,5.27,0,0,0,1.7-10.25,36.28,36.28,0,0,0-8.6-1.6v-8.38L304.61,62.6a18.44,18.44,0,0,1,35.63,9.54l-23.53,87.79a52.47,52.47,0,0,0-5.27,23v43a1.74,1.74,0,0,1-1.51,1.74,75.64,75.64,0,0,0-69.32,75.79,5.27,5.27,0,1,0,10.54,0c0-33.66,26.22-62.34,59.71-65.31A12.31,12.31,0,0,0,322,225.89v-43a42,42,0,0,1,4.25-18.51s0,0,0,0c.09-.21.19-.4.3-.6a42,42,0,0,1,30.22-22.39,1.7,1.7,0,0,1,1.46.41,1.66,1.66,0,0,1,.63,1.33Z" transform="translate(-107.44 -11.69)"/><path class="cls-1" d="M123.58,417.67c10.47,0,15.85,6.26,15.85,17.22v2.16H129.26v-2.84c0-4.89-2-6.75-5.38-6.75s-5.39,1.86-5.39,6.75,2.16,8.71,9.2,14.87c9,7.93,11.84,13.6,11.84,21.43,0,11-5.48,17.22-16,17.22s-16-6.26-16-17.22V466.3h10.17v4.89c0,4.9,2.16,6.66,5.58,6.66s5.58-1.76,5.58-6.66-2.16-8.7-9.2-14.87c-9-7.92-11.84-13.6-11.84-21.43C107.73,423.93,113.11,417.67,123.58,417.67Z" transform="translate(-107.44 -11.69)"/><path class="cls-1" d="M176.9,461.41v9.1c0,11-5.48,17.22-16,17.22s-16.05-6.26-16.05-17.22V434.89c0-11,5.48-17.22,16.05-17.22s16,6.26,16,17.22v6.66H166.73v-7.34c0-4.89-2.15-6.75-5.58-6.75s-5.58,1.86-5.58,6.75v37c0,4.9,2.16,6.66,5.58,6.66s5.58-1.76,5.58-6.66v-9.78Z" transform="translate(-107.44 -11.69)"/><path class="cls-1" d="M183.45,418.45h10.77V487H183.45Z" transform="translate(-107.44 -11.69)"/><path class="cls-1" d="M216.52,417.67c10.47,0,15.85,6.26,15.85,17.22v2.16H222.2v-2.84c0-4.89-2-6.75-5.38-6.75s-5.38,1.86-5.38,6.75,2.15,8.71,9.19,14.87c9,7.93,11.84,13.6,11.84,21.43,0,11-5.48,17.22-16,17.22s-16.05-6.26-16.05-17.22V466.3h10.17v4.89c0,4.9,2.16,6.66,5.58,6.66s5.58-1.76,5.58-6.66-2.15-8.7-9.2-14.87c-9-7.92-11.84-13.6-11.84-21.43C200.67,423.93,206.05,417.67,216.52,417.67Z" transform="translate(-107.44 -11.69)"/><path class="cls-1" d="M253.11,417.67c10.47,0,15.86,6.26,15.86,17.22v2.16H258.79v-2.84c0-4.89-2-6.75-5.38-6.75s-5.38,1.86-5.38,6.75,2.15,8.71,9.19,14.87c9,7.93,11.84,13.6,11.84,21.43,0,11-5.48,17.22-16,17.22S237,481.47,237,470.51V466.3h10.18v4.89c0,4.9,2.15,6.66,5.57,6.66s5.58-1.76,5.58-6.66-2.15-8.7-9.2-14.87c-9-7.92-11.84-13.6-11.84-21.43C237.26,423.93,242.64,417.67,253.11,417.67Z" transform="translate(-107.44 -11.69)"/><path class="cls-1" d="M274.34,434.89c0-11,5.77-17.22,16.34-17.22S307,423.93,307,434.89v35.62c0,11-5.77,17.22-16.34,17.22s-16.34-6.26-16.34-17.22Zm10.77,36.3c0,4.9,2.15,6.75,5.57,6.75s5.58-1.85,5.58-6.75v-37c0-4.89-2.15-6.75-5.58-6.75s-5.57,1.86-5.57,6.75Z" transform="translate(-107.44 -11.69)"/><path class="cls-1" d="M336.47,487c-.59-1.77-1-2.84-1-8.42V467.77c0-6.36-2.15-8.71-7-8.71h-3.72V487H314v-68.5h16.24c11.15,0,16,5.19,16,15.76v5.38c0,7-2.25,11.54-7.05,13.8v.19c5.38,2.25,7.14,7.34,7.14,14.48v10.57c0,3.33.1,5.77,1.18,8.32Zm-11.74-58.71v21h4.21c4,0,6.45-1.77,6.45-7.24v-6.76c0-4.89-1.66-7-5.48-7Z" transform="translate(-107.44 -11.69)"/><path class="cls-1" d="M367.78,417.67c10.47,0,15.85,6.26,15.85,17.22v2.16H373.45v-2.84c0-4.89-2-6.75-5.38-6.75s-5.38,1.86-5.38,6.75,2.15,8.71,9.2,14.87c9,7.93,11.84,13.6,11.84,21.43,0,11-5.48,17.22-16.05,17.22s-16.05-6.26-16.05-17.22V466.3h10.18v4.89c0,4.9,2.15,6.66,5.58,6.66s5.57-1.76,5.57-6.66-2.15-8.7-9.2-14.87c-9-7.92-11.83-13.6-11.83-21.43C351.93,423.93,357.31,417.67,367.78,417.67Z" transform="translate(-107.44 -11.69)"/></svg>