<svg id="Capa_1" data-name="Capa 1" xmlns="http://www.w3.org/2000/svg" viewBox="0 0 272.81 455.6"><defs><style>.cls-1{fill:#1d1d1b;}</style></defs><path id="Rock" class="cls-1" d="M353.73,83.93V69.64a35.69,35.69,0,0,0-61.34-24.86,35.71,35.71,0,0,0-65.69,0,35.66,35.66,0,0,0-57.78,9.36,35.7,35.7,0,0,0-62,24.16V211.22a138.36,138.36,0,0,0,41.85,99.63,134.26,134.26,0,0,0,94.59,38.91c.91,0,1.82,0,2.73,0A136.41,136.41,0,0,0,379.71,213.36V115.73A32.49,32.49,0,0,0,353.73,83.93ZM295.27,69.64a22.74,22.74,0,0,1,45.47,0V83.26H295.27ZM236.81,58.81a22.74,22.74,0,0,1,45.47,0V83.26H236.81ZM178.36,69.64a22.73,22.73,0,1,1,45.46,0V83.26h-19.7a15.15,15.15,0,0,0-14.94,17.82,64.72,64.72,0,0,0,32.41,45.49,22.73,22.73,0,0,1-43.23-9.81ZM119.9,78.3a22.74,22.74,0,0,1,45.47,0v49.8a22.74,22.74,0,0,1-45.47,0ZM366.72,213.36c0,66.71-54.23,122.05-120.9,123.39a121.68,121.68,0,0,1-88-35.16,125.59,125.59,0,0,1-37.95-90.37V155.64a35.7,35.7,0,0,0,49-3.36,35.72,35.72,0,0,0,61.38,5.05,35.74,35.74,0,0,0,19.2,13.72,93.19,93.19,0,0,0-25.68,64.5,6.5,6.5,0,1,0,13,0,80.72,80.72,0,0,1,80.83-80.84,6.5,6.5,0,0,0,0-13h-64.5A51.62,51.62,0,0,1,233.83,138a3.36,3.36,0,0,1-.63-.26A51.73,51.73,0,0,1,202,98.82a2.27,2.27,0,0,1,.47-1.79,2.17,2.17,0,0,1,1.67-.78H347.24a19.52,19.52,0,0,1,19.48,19.48ZM245,154.19a65,65,0,0,0,8.18.52h16.8c-2.36,1.4-4.68,2.9-6.91,4.52h0a19.94,19.94,0,0,1-3.46.26A22.58,22.58,0,0,1,245,154.19Z" transform="translate(-106.91 -23.09)"/><path class="cls-1" d="M177.69,477.73c-.72-2.17-1.2-3.5-1.2-10.38V454.08c0-7.84-2.66-10.73-8.69-10.73h-4.58v34.38H150V393.28h20c13.76,0,19.67,6.4,19.67,19.43v6.63c0,8.69-2.78,14.24-8.69,17v.24c6.64,2.78,8.81,9.05,8.81,17.85v13c0,4.1.12,7.12,1.44,10.26Zm-14.47-72.38v25.93h5.19c4.94,0,8-2.17,8-8.92V414c0-6-2.05-8.68-6.76-8.68Z" transform="translate(-106.91 -23.09)"/><path class="cls-1" d="M197.35,413.55c0-13.51,7.12-21.23,20.15-21.23s20.14,7.72,20.14,21.23v43.91c0,13.51-7.11,21.23-20.14,21.23s-20.15-7.72-20.15-21.23Zm13.27,44.75c0,6,2.66,8.33,6.88,8.33s6.87-2.29,6.87-8.33V412.71c0-6-2.65-8.33-6.87-8.33s-6.88,2.29-6.88,8.33Z" transform="translate(-106.91 -23.09)"/><path class="cls-1" d="M284.68,446.24v11.22c0,13.51-6.75,21.23-19.78,21.23s-19.78-7.72-19.78-21.23V413.55c0-13.51,6.75-21.23,19.78-21.23s19.78,7.72,19.78,21.23v8.2H272.14v-9c0-6-2.65-8.33-6.88-8.33s-6.87,2.29-6.87,8.33V458.3c0,6,2.65,8.21,6.87,8.21s6.88-2.17,6.88-8.21V446.24Z" transform="translate(-106.91 -23.09)"/><path class="cls-1" d="M310.13,444.07l-4.1,7.72v25.94H292.76V393.28H306v36.56h.24l17.13-36.56h13.27l-18.46,37.64,18.46,46.81H323Z" transform="translate(-106.91 -23.09)"/></svg>